<?xml version="1.0" encoding="UTF-8"?>
<svg id="Layer_1" data-name="Layer 1" xmlns="http://www.w3.org/2000/svg" viewBox="0 0 742.82 449.07">
  <defs>
    <style>
      .cls-1 {
        fill: #ec3049;
        stroke-width: 0px;
      }
    </style>
  </defs>
  <path class="cls-1" d="m477.41,91.84C475.99,40.37,432.47,0,380.98,0h-25.6c-2.49,0-4.5,2.01-4.5,4.5v99.53c0,5.87-6.66,9.26-11.4,5.81l-69.74-50.7c-1.81-1.32-4.36-.02-4.36,2.22v135.61c0,3.79,1.95,7.31,5.17,9.32l66.27,41.42c6.12,3.83,14.06-.58,14.06-7.8v-50.91h32.06c53.07,0,95.93-43.75,94.46-97.16Z"/>
  <g>
    <g>
      <path class="cls-1" d="m81.33,384.89c0,23.52-15.73,34.29-40.66,34.29h-11.34v21.82c0,3.54-2.83,6.38-6.38,6.38H6.23c-3.4,0-6.23-2.83-6.23-6.38v-86.57c0-3.4,2.83-6.23,6.23-6.23h34.43c27.34,0,40.66,14.59,40.66,36.7Zm-29.61,0c0-5.81-3.68-10.06-11.05-10.06h-11.34v20.26h11.34c6.94,0,11.05-3.83,11.05-10.2Z"/>
      <path class="cls-1" d="m161.23,420.73c3.4,0,6.23,2.83,6.23,6.23v14.03c0,3.54-2.83,6.38-6.23,6.38h-53.7c-3.54,0-6.38-2.83-6.38-6.38v-86.57c0-3.4,2.83-6.23,6.38-6.23h16.72c3.4,0,6.23,2.83,6.23,6.23v66.31h30.75Z"/>
      <path class="cls-1" d="m251.2,442.69l-3.12-11.33h-30.32l-3.12,11.33c-.71,2.83-3.26,4.68-6.09,4.68h-19.98c-3.4,0-5.81-3.4-4.68-6.66l29.19-87.42c.99-2.98,3.97-5.1,7.23-5.1h25.22c3.26,0,6.23,2.13,7.23,5.1l29.19,87.42c1.13,3.26-1.28,6.66-4.82,6.66h-19.84c-2.83,0-5.38-1.84-6.09-4.68Zm-8.93-32.16l-9.35-33.86-9.35,33.86h18.7Z"/>
      <path class="cls-1" d="m377.57,353.86l-32.59,56.11v31.03c0,3.54-2.69,6.38-6.23,6.38h-16.72c-3.54,0-6.23-2.83-6.23-6.38v-31.03l-32.59-56.11c-1.41-2.55.43-5.67,3.4-5.67h20.97c2.98,0,5.53,1.7,6.8,4.39l16.01,34.15,16.01-34.15c1.28-2.69,3.83-4.39,6.8-4.39h20.97c2.98,0,4.82,3.12,3.4,5.67Z"/>
      <path class="cls-1" d="m484.54,348.19h21.11c3.4,0,6.23,2.83,6.23,6.23v86.57c0,3.54-2.84,6.38-6.23,6.38h-16.72c-3.54,0-6.37-2.83-6.37-6.38v-48.03l-21.82,37.97c-.99,1.56-2.55,2.55-4.39,2.55h-3.12c-1.84,0-3.4-.99-4.39-2.55l-21.81-37.97v48.03c0,3.54-2.84,6.38-6.38,6.38h-16.72c-3.4,0-6.23-2.83-6.23-6.38v-86.57c0-3.4,2.84-6.23,6.23-6.23h21.11c2.84,0,5.24,1.42,6.66,3.83l23.1,40.66,23.09-40.66c1.42-2.41,3.82-3.83,6.66-3.83Z"/>
      <path class="cls-1" d="m736.59,348.19c3.4,0,6.23,2.83,6.23,6.23v52.57c0,29.47-17,42.08-43.92,42.08s-43.92-12.61-43.92-42.08v-52.57c0-3.4,2.84-6.23,6.23-6.23h16.72c3.54,0,6.38,2.83,6.38,6.23v50.01c0,11.05,5.52,16.29,14.59,16.29s14.59-5.24,14.59-16.29v-50.01c0-3.4,2.84-6.23,6.38-6.23h16.72Z"/>
    </g>
    <path class="cls-1" d="m634.43,397.78c0-29.19-21.25-51.29-51-51.29s-51.01,22.1-51.01,51.29c0,26.68,17.59,47.36,43.16,50.89,1.45.2,2.73-.98,2.73-2.44v-24.1c0-1.12-.78-2.05-1.85-2.38-9.35-2.8-14.72-11.34-14.72-21.96,0-12.89,8.08-22.95,21.68-22.95s21.68,10.06,21.68,22.95c0,10.62-5.37,19.16-14.72,21.97-1.08.32-1.85,1.25-1.85,2.38v24.1c0,1.47,1.28,2.64,2.73,2.44,25.57-3.52,43.16-24.21,43.16-50.89Z"/>
  </g>
</svg>