<?xml version="1.0" encoding="UTF-8"?>
<svg id="Layer_1" data-name="Layer 1" xmlns="http://www.w3.org/2000/svg" viewBox="0 0 1668.38 359.18">
  <defs>
    <style>
      .cls-1 {
        fill: #fff;
        stroke-width: 0px;
      }
    </style>
  </defs>
  <path class="cls-1" d="m305.7,132.42C303.66,58.21,240.91,0,166.67,0h-36.91c-3.58,0-6.49,2.9-6.49,6.49v143.5c0,8.46-9.6,13.35-16.44,8.37L6.28,85.26c-2.62-1.9-6.28-.03-6.28,3.2v195.53c0,5.46,2.81,10.54,7.45,13.44l95.55,59.72c8.83,5.52,20.28-.83,20.28-11.24v-73.41h46.23c76.52,0,138.31-63.08,136.2-140.08Z"/>
  <g>
    <g>
      <path class="cls-1" d="m566.41,158.11c0,39.18-26.2,57.12-67.74,57.12h-18.88v36.35c0,5.9-4.72,10.62-10.62,10.62h-27.85c-5.67,0-10.39-4.72-10.39-10.62V107.37c0-5.67,4.72-10.39,10.39-10.39h57.36c45.55,0,67.74,24.31,67.74,61.13Zm-49.33,0c0-9.68-6.14-16.76-18.41-16.76h-18.88v33.75h18.88c11.57,0,18.41-6.37,18.41-16.99Z"/>
      <path class="cls-1" d="m699.52,217.83c5.67,0,10.39,4.72,10.39,10.39v23.37c0,5.9-4.72,10.62-10.39,10.62h-89.46c-5.9,0-10.62-4.72-10.62-10.62V107.37c0-5.67,4.72-10.39,10.62-10.39h27.85c5.67,0,10.38,4.72,10.38,10.39v110.46h51.22Z"/>
      <path class="cls-1" d="m849.39,254.41l-5.19-18.88h-50.51l-5.19,18.88c-1.18,4.72-5.43,7.79-10.15,7.79h-33.28c-5.67,0-9.68-5.67-7.79-11.09l48.62-145.63c1.65-4.96,6.61-8.5,12.04-8.5h42.02c5.43,0,10.38,3.54,12.04,8.5l48.62,145.63c1.89,5.43-2.13,11.09-8.02,11.09h-33.05c-4.72,0-8.97-3.07-10.15-7.79Zm-14.87-53.58l-15.58-56.41-15.58,56.41h31.16Z"/>
      <path class="cls-1" d="m1059.92,106.42l-54.29,93.47v51.69c0,5.9-4.48,10.62-10.38,10.62h-27.86c-5.9,0-10.38-4.72-10.38-10.62v-51.69l-54.3-93.47c-2.35-4.25.72-9.44,5.67-9.44h34.93c4.96,0,9.21,2.83,11.33,7.32l26.67,56.88,26.67-56.88c2.13-4.49,6.38-7.32,11.33-7.32h34.93c4.96,0,8.02,5.19,5.66,9.44Z"/>
      <path class="cls-1" d="m1238.12,96.98h35.17c5.66,0,10.39,4.72,10.39,10.39v144.22c0,5.9-4.72,10.62-10.39,10.62h-27.85c-5.9,0-10.62-4.72-10.62-10.62v-80.02l-36.35,63.26c-1.65,2.6-4.25,4.25-7.32,4.25h-5.2c-3.07,0-5.66-1.65-7.32-4.25l-36.34-63.26v80.02c0,5.9-4.72,10.62-10.63,10.62h-27.85c-5.66,0-10.39-4.72-10.39-10.62V107.37c0-5.67,4.72-10.39,10.39-10.39h35.17c4.72,0,8.73,2.36,11.09,6.37l38.48,67.74,38.47-67.74c2.36-4.01,6.37-6.37,11.09-6.37Z"/>
      <path class="cls-1" d="m1658,96.98c5.66,0,10.39,4.72,10.39,10.39v87.57c0,49.09-28.32,70.1-73.17,70.1s-73.17-21.01-73.17-70.1v-87.57c0-5.67,4.72-10.39,10.39-10.39h27.85c5.9,0,10.63,4.72,10.63,10.39v83.32c0,18.41,9.2,27.14,24.31,27.14s24.31-8.73,24.31-27.14v-83.32c0-5.67,4.72-10.39,10.63-10.39h27.85Z"/>
    </g>
    <path class="cls-1" d="m1487.83,179.59c0-48.62-35.4-85.44-84.97-85.44s-84.97,36.82-84.97,85.44c0,44.44,29.3,78.9,71.9,84.77,2.42.33,4.55-1.63,4.55-4.07v-40.15c0-1.87-1.29-3.42-3.08-3.96-15.57-4.67-24.51-18.9-24.51-36.59,0-21.48,13.46-38.24,36.12-38.24s36.11,16.76,36.11,38.24c0,17.7-8.95,31.93-24.51,36.59-1.79.54-3.08,2.09-3.08,3.96v40.15c0,2.44,2.14,4.4,4.55,4.07,42.6-5.87,71.9-40.33,71.9-84.77Z"/>
  </g>
</svg>